<?xml version="1.0" standalone="no"?><!DOCTYPE svg PUBLIC "-//W3C//DTD SVG 1.1//EN" "http://www.w3.org/Graphics/SVG/1.1/DTD/svg11.dtd"><svg t="1495203637564" class="icon" style="" viewBox="0 0 1024 1024" version="1.1" xmlns="http://www.w3.org/2000/svg" p-id="3152" xmlns:xlink="http://www.w3.org/1999/xlink" width="64" height="64"><defs><style type="text/css"></style></defs><path d="M672.038438 860.781638l0-83.45062 172.117033 0c0-267.361257 38.640042-313.807079 38.640042-411.524634 0-201.901383-123.034151-365.747032-373.102556-365.747032-250.068406 0-373.102556 163.845649-373.102556 365.747032 0 91.722004 38.753629 137.27755 38.753629 411.524634l157.348678 0 0 86.697571C144.696008 912.859737 41.537534 1023.430018 41.537534 1023.430018l936.311869 0C977.849402 1023.430018 869.139491 907.529335 672.038438 860.781638zM625.288694 862.418928c-77.507258 35.396161-167.839613 35.588543-245.792009 0L379.496685 721.060433c38.697347 21.542642 82.280981 34.06177 130.196271 34.06177 41.974997 0 80.507592-9.604752 115.595738-26.232454L625.288694 862.418928zM509.692956 708.207707c-175.890986 0-254.620072-171.867346-254.620072-342.401324 0-101.547791 32.534997-101.547791 56.187697-101.547791 20.210297 0 44.972261 4.858658 73.621764 10.521634 37.310767 7.523347 79.45154 15.880689 124.811634 15.880689 45.417399 0 87.612407-8.357342 124.81368-15.880689 28.703739-5.664 53.40942-10.521634 73.677023-10.521634 23.705911 0 56.240909 0 56.240909 101.547791C764.424568 536.340361 685.584965 708.207707 509.692956 708.207707z" p-id="3153"></path><path d="M509.692956 625.452935c87.947028 0 113.706715-85.281315 113.706715-85.281315L395.986241 540.17162C395.986241 540.17162 421.748998 625.452935 509.692956 625.452935z" p-id="3154"></path></svg>