<?xml version="1.0" standalone="no"?><!DOCTYPE svg PUBLIC "-//W3C//DTD SVG 1.1//EN" "http://www.w3.org/Graphics/SVG/1.1/DTD/svg11.dtd"><svg t="1495203679356" class="icon" style="" viewBox="0 0 1024 1024" version="1.1" xmlns="http://www.w3.org/2000/svg" p-id="4188" xmlns:xlink="http://www.w3.org/1999/xlink" width="64" height="64"><defs><style type="text/css"></style></defs><path d="M1024 512" p-id="4189"></path><path d="M512 0C229.12 0 0 229.12 0 512s229.12 512 512 512c282.88 0 512-229.12 512-512S794.88 0 512 0zM358.592 307.2c0-84.736 68.864-153.6 153.6-153.6s153.6 68.864 153.6 153.6c0 29.44-8.448 56.832-22.784 80.192l77.76 55.616c-10.88 23.36-26.368 43.84-45.12 60.544l-55.68-87.04C592.256 443.904 554.176 460.8 512.192 460.8c-42.048 0-80.128-16.896-107.84-44.288L348.608 503.616C329.856 486.912 314.432 466.368 303.552 443.072l77.824-55.68C367.04 364.032 358.592 336.64 358.592 307.2zM512.064 880c-128.256 0-240.896-65.536-307.2-164.864 1.28-101.632 205.056-157.696 307.2-157.696 102.144 0 305.664 56.064 307.2 157.696C752.96 814.464 640.32 880 512.064 880z" p-id="4190"></path></svg>