<?xml version="1.0" standalone="no"?><!DOCTYPE svg PUBLIC "-//W3C//DTD SVG 1.1//EN" "http://www.w3.org/Graphics/SVG/1.1/DTD/svg11.dtd"><svg t="1495203719001" class="icon" style="" viewBox="0 0 1024 1024" version="1.1" xmlns="http://www.w3.org/2000/svg" p-id="5577" xmlns:xlink="http://www.w3.org/1999/xlink" width="64" height="64"><defs><style type="text/css"></style></defs><path d="M510.56 968.48h4.8a986.88 986.88 0 0 0 416-93.28l-37.92-88.8c-11.36-32-59.2-56.96-106.08-56.96l-528-3.84c-46.72 0-123.36 25.44-134.72 70.72l-32 80a986.88 986.88 0 0 0 417.92 92.16z" fill="#F3E6E0" p-id="5578"></path><path d="M616.8 679.36H410.56s-68.64 74.72-32 158.4S511.04 976 511.04 976s99.68-56.96 136.64-140.64-30.88-156-30.88-156z" fill="#D8DFE9" p-id="5579"></path><path d="M698.88 714.4c-26.24-7.52-72.8-28-84.48-48v-108.8H409.92v108c-13.12 24.32-54.88 42.88-84.96 48.8l35.04 12.96a440.64 440.64 0 0 0 308.96-1.6z" fill="#E0B9A0" p-id="5580"></path><path d="M614.24 666.08v-108.8H409.92v37.12L567.52 752c54.56-12.16 48-3.2 112-44.96-25.92-6.72-53.6-20.64-65.28-40.96z" fill="#D8AE98" p-id="5581"></path><path d="M746.4 325.28a43.68 43.68 0 0 0-32-9.28c0-12.16-2.08-24.48-3.84-37.28C698.08 198.08 640 103.84 512 103.84s-185.76 94.24-197.44 175.04c-1.92 12.8-3.2 24.96-3.84 37.28a44 44 0 0 0-32 9.28c-16 13.28-22.4 37.28-16 65.92a101.12 101.12 0 0 0 66.08 77.76l14.88 4.48c23.36 110.72 129.12 160 169.6 160s147.2-49.12 170.56-160l13.92-4.64a101.12 101.12 0 0 0 66.08-77.76c4.96-28.48-0.96-52.64-17.44-65.92z" fill="#E0B9A0" p-id="5582"></path><path d="M746.4 325.28a43.68 43.68 0 0 0-32-9.28c0-12.16-2.08-24.48-3.84-37.28-10.4-72.32-58.88-155.2-160-171.68l-3.04 16a1102.88 1102.88 0 0 0-56.16 363.04 1422.08 1422.08 0 0 0 7.2 146.24 78.88 78.88 0 0 0 14.56 1.76c40.48 0 147.2-49.12 170.56-160l13.92-4.64a101.12 101.12 0 0 0 66.08-77.76c5.12-28.96-0.8-53.12-17.28-66.4z" fill="#D8AE98" p-id="5583"></path><path d="M412.48 400a24 15.84 0 1 0 48 0 24 15.84 0 1 0-48 0Z" fill="#333333" p-id="5584"></path><path d="M560.8 400a24 15.84 0 1 0 48 0 24 15.84 0 1 0-48 0Z" fill="#333333" p-id="5585"></path><path d="M512 744.96l-48 80s-112-32-144-112a188.96 188.96 0 0 0 78.24-33.6c7.52 12.16 34.88 39.68 113.76 65.76M512 744.96l48 80s112-32 144-112a188.96 188.96 0 0 1-78.24-33.6c-7.52 12.16-34.88 39.68-113.76 65.76" fill="#D8DFE9" p-id="5586"></path><path d="M496 971.68c-17.6-17.28-46.08-45.12-71.2-70.24a162.24 162.24 0 0 1-56.96-121.76c0-42.08 30.4-77.44 42.88-108.96v-65.28a417.76 417.76 0 0 0-155.68 184.32l96 102.88-43.68 58.4A994.56 994.56 0 0 0 496 971.68z" fill="#F3E6E0" p-id="5587"></path><path d="M614.24 620.48L611.68 672c12.48 32 45.44 62.08 45.44 104.16a162.24 162.24 0 0 1-56.96 121.76c-24.96 24.96-53.6 52.96-71.2 70.24A993.6 993.6 0 0 0 720 946.24l-46.4-57.28 96-102.88c-17.6-42.88-65.6-108.64-155.36-165.6z" fill="#F3E6E0" p-id="5588"></path><path d="M512.16 822.24m-12 0a12 12 0 1 0 24 0 12 12 0 1 0-24 0Z" fill="#333333" p-id="5589"></path><path d="M512.16 884.96m-12 0a12 12 0 1 0 24 0 12 12 0 1 0-24 0Z" fill="#333333" p-id="5590"></path><path d="M758.4 196.64c-36.64-78.72-76.64-103.84-116.48-104.48A3.84 3.84 0 0 1 640 91.2C610.72 64 582.56 48 494.4 48 326.24 48 224 246.72 219.84 360a4 4 0 0 0 6.4 3.36l32-22.08a4 4 0 0 1 5.76 5.12 332.96 332.96 0 0 0-28.64 122.24 4 4 0 0 0 6.72 3.2 168.32 168.32 0 0 1 27.2-23.04 3.68 3.68 0 0 1 5.6 2.88 297.76 297.76 0 0 0 65.28 145.12L384 553.92 371.2 496c-9.28-112 147.84-215.84 251.36-301.28l-0.8 17.76A136.64 136.64 0 0 1 672 312.48v75.84a4 4 0 0 0 6.88 2.88l18.4-18.4a4 4 0 0 1 6.88 2.88v22.4c0 16 0 36.64-17.12 45.6a308.96 308.96 0 0 1-50.56 113.44l46.56 39.84c16.8-16 89.92-91.2 96-183.68a3.84 3.84 0 0 1 6.4-2.88l14.72 11.68a4 4 0 0 0 6.56-2.88 483.68 483.68 0 0 0-48.32-222.56z" fill="#333333" p-id="5591"></path></svg>