<?xml version="1.0" standalone="no"?><!DOCTYPE svg PUBLIC "-//W3C//DTD SVG 1.1//EN" "http://www.w3.org/Graphics/SVG/1.1/DTD/svg11.dtd"><svg t="1495203705680" class="icon" style="" viewBox="0 0 1024 1024" version="1.1" xmlns="http://www.w3.org/2000/svg" p-id="5165" xmlns:xlink="http://www.w3.org/1999/xlink" width="64" height="64"><defs><style type="text/css"></style></defs><path d="M375.04 539.52h256v288.96h-256z" fill="#FBD3CA" p-id="5166"></path><path d="M375.04 580.32l248 248h8V539.52h-256v40.8z" fill="#F3CAC2" p-id="5167"></path><path d="M900 797.44a96 96 0 0 0-77.76-76.32L688 697.44l-39.52-76.96-56.48 104 2.72 4.32-91.52 129.6-92-126.56 4.64-7.36-56-104L320 697.6 200.16 720a96 96 0 0 0-76.48 76.32l-20.96 94.24 171.68 48a867.68 867.68 0 0 0 458.24 2.56l188.8-50.56z" fill="#D6EDF5" p-id="5168"></path><path d="M555.04 874.56m-12 0a12 12 0 1 0 24 0 12 12 0 1 0-24 0Z" fill="#333333" p-id="5169"></path><path d="M688 117.28a311.52 311.52 0 0 0-154.72-33.6l64-24c-295.68-35.52-272 88.96-272 88.96l-29.76 22.08c-29.6 22.08-24.64 48-24.64 83.84 0 64 36.32 80.8 72.64 137.44v-88.8a65.28 65.28 0 0 1 27.2-57.6l-45.28-16a325.6 325.6 0 0 1 112-5.28c39.04 6.88 64.96 10.56 77.92 12.16-28.32-23.68-41.92-26.72-80-44.8 38.08 5.44 97.6 18.88 130.4 51.2a212.48 212.48 0 0 0 68.96 39.36A426.72 426.72 0 0 1 592 232.32c80 9.76 68.32 54.4 68.32 160 36.32-56.48 72.64-65.12 72.64-129.28v-91.36c-0.16-34.72-31.2-47.36-44.96-54.4z" fill="#333333" p-id="5170"></path><path d="M501.76 634.4a130.72 130.72 0 0 1-53.76-7.36c-53.44-28.16-105.76-90.08-105.76-127.04v-32a75.68 75.68 0 0 1-44.32-58.4c-7.36-34.88-3.68-63.04 28.32-63.04v-48c0-80 48.96-161.12 176-161.12s176 81.6 176 161.12v48c32 0 35.68 28.16 28.32 63.04a75.68 75.68 0 0 1-44.32 58.4v32c0 37.12-52.32 99.04-105.76 127.04a130.72 130.72 0 0 1-54.72 7.36z" fill="#FBD3CA" p-id="5171"></path><path d="M501.76 634.4a130.72 130.72 0 0 1-53.76-7.36c-53.44-28.16-105.76-90.08-105.76-127.04v-32a75.68 75.68 0 0 1-44.32-58.4c-7.36-34.88-3.68-63.04 28.32-63.04v-48c0-80 48.96-161.12 176-161.12s176 81.6 176 161.12v48c32 0 35.68 28.16 28.32 63.04a75.68 75.68 0 0 1-44.32 58.4v32c0 37.12-52.32 99.04-105.76 127.04a130.72 130.72 0 0 1-54.72 7.36z" fill="#FBD3CA" p-id="5172"></path><path d="M677.76 346.56v-48c0-80-48.96-161.12-176-161.12-8.64 0-16 0-24.64 1.12a967.84 967.84 0 0 0-55.2 333.6 1212.96 1212.96 0 0 0 8 144 203.36 203.36 0 0 0 17.6 10.56 130.72 130.72 0 0 0 54.24 7.36 130.72 130.72 0 0 0 54.24-7.36c53.44-28.16 105.76-90.08 105.76-127.04v-32a75.68 75.68 0 0 0 44.32-58.4c7.36-34.56 3.68-62.72-28.32-62.72z" fill="#F3CAC2" p-id="5173"></path><path d="M685.28 301.92v20.48h-17.12c-131.68 0-182.56-49.76-189.28-57.12l-0.8-0.96c-20.16 25.12-6.72 69.12-6.72 69.12-45.12-16-60.96-41.76-66.88-55.68a334.4 334.4 0 0 1-17.6-51.84c-4.48-21.6 64-42.08 64-42.08l189.12 48z" fill="#F5CAC1" p-id="5174"></path><path d="M405.76 234.56s-61.44 30.4-64 96l8 73.44 3.04-53.76a99.36 99.36 0 0 1 52.96-83.68z" fill="#F5CAC1" p-id="5175"></path><path d="M633.28 496a32 32 0 0 1-12.64 16l-38.88 25.92-16-16v32a16 16 0 0 1-16 16h-9.6a6.4 6.4 0 0 1-6.4-6.4 9.6 9.6 0 0 0-9.6-9.6H480a9.6 9.6 0 0 0-9.6 9.6 6.4 6.4 0 0 1-6.4 6.4h-9.6a16 16 0 0 1-16-16v-32l-16 16L383.04 512a32 32 0 0 1-12.64-16l-20.8-62.24a4 4 0 0 0-7.84 1.28v87.36A286.56 286.56 0 0 0 440.64 624a97.44 97.44 0 0 0 45.12 11.2h32a97.44 97.44 0 0 0 45.12-11.2 286.56 286.56 0 0 0 98.88-100.8v-88a4 4 0 0 0-7.84-1.28z" fill="#333333" p-id="5176"></path><path d="M661.76 322.88v72.32c24-57.44 48-48 48-119.36C709.76 157.12 591.2 80 474.72 80a253.92 253.92 0 0 0-85.92 14.88 125.92 125.92 0 0 1 44.64 23.52 34.4 34.4 0 0 1 2.56 4.48h-9.92a135.84 135.84 0 0 0-88 32h37.12s-81.44 20.8-81.44 121.76c0 70.72 24 61.92 48 119.36v-62.56c0-66.08 50.24-81.76 50.24-81.76s4.96 42.08 70.88 66.08c0 0-13.44-44.32 6.72-69.6l0.8 0.96c6.88 7.36 57.92 57.44 190.56 57.44H672s3.84 7.68-10.24 16.32z" fill="#333333" p-id="5177"></path><path d="M577.76 402.24m-16 0a16 16 0 1 0 32 0 16 16 0 1 0-32 0Z" fill="#333333" p-id="5178"></path><path d="M425.76 402.24m-16 0a16 16 0 1 0 32 0 16 16 0 1 0-32 0Z" fill="#333333" p-id="5179"></path><path d="M380.32 364.64h75.52a22.08 22.08 0 0 1 16 6.4 23.84 23.84 0 0 1 3.2 30.08l-17.76 26.56a29.92 29.92 0 0 1-24.96 13.28H400a42.56 42.56 0 0 1-42.56-42.56v-10.4a23.36 23.36 0 0 1 22.88-23.36zM624 364.64h-76.16a22.08 22.08 0 0 0-16 6.4 23.84 23.84 0 0 0-3.2 30.08l17.76 26.56a29.92 29.92 0 0 0 24.96 13.28h32.96a42.56 42.56 0 0 0 42.56-42.56v-10.4A23.36 23.36 0 0 0 624 364.64z" fill="#444444" p-id="5180"></path></svg>