<?xml version="1.0" standalone="no"?><!DOCTYPE svg PUBLIC "-//W3C//DTD SVG 1.1//EN" "http://www.w3.org/Graphics/SVG/1.1/DTD/svg11.dtd"><svg t="1495203725174" class="icon" style="" viewBox="0 0 1024 1024" version="1.1" xmlns="http://www.w3.org/2000/svg" p-id="5714" xmlns:xlink="http://www.w3.org/1999/xlink" width="64" height="64"><defs><style type="text/css"></style></defs><path d="M512 960a987.84 987.84 0 0 0 384-76.96l-24.48-115.84a101.92 101.92 0 0 0-98.88-77.28H251.84a101.92 101.92 0 0 0-98.88 77.28L128 882.72A988 988 0 0 0 512 960z" fill="#F5E3BF" p-id="5715"></path><path d="M746.56 315.84a43.68 43.68 0 0 0-32-9.28c0-12.16-2.08-24.48-3.84-37.28C698.24 188.64 640 94.4 512 94.4s-185.6 94.24-197.28 175.04c-1.92 12.8-3.2 24.96-3.84 37.28a44 44 0 0 0-32 9.28c-16 13.28-22.4 37.28-16 65.92a101.12 101.12 0 0 0 66.08 77.76l14.88 4.48a203.04 203.04 0 0 0 67.52 112v64c-13.12 24.32-54.88 42.88-84.96 48.8a222.4 222.4 0 0 0 373.92 0c-26.24-7.52-72.8-28-84.48-48v-64A202.24 202.24 0 0 0 682.88 464l13.92-4.64a101.12 101.12 0 0 0 66.08-77.76c6.08-28.48 0.16-52.48-16.32-65.76z" fill="#AE8164" p-id="5716"></path><path d="M614.56 641.44v-59.2L512 628.96l-102.08-46.72v18.24l174.72 176c57.92-11.52 82.24-34.08 114.24-86.24-26.08-8-72.8-28.48-84.32-48.8z" fill="#A2785D" p-id="5717"></path><path d="M720 315.52s3.2 0 6.4-8.48a46.56 46.56 0 0 0-12.48 0c0-12.16-2.08-24.48-3.84-37.28C698.24 188.64 640 94.4 512 94.4h-14.4l-5.12 23.2a942.24 942.24 0 0 0-55.68 334.88 1187.36 1187.36 0 0 0 8.8 149.28A150.56 150.56 0 0 0 512 624c40.48 0 147.2-49.12 170.56-160l13.92-4.64a116 116 0 0 0 11.36-4.96A89.44 89.44 0 0 0 752 388.64c7.68-41.44-5.76-79.36-32-73.12z" fill="#A47C61" p-id="5718"></path><path d="M431.2 407.52m-21.28 0a21.28 21.28 0 1 0 42.56 0 21.28 21.28 0 1 0-42.56 0Z" fill="#333333" p-id="5719"></path><path d="M593.12 407.52m-21.28 0a21.28 21.28 0 1 0 42.56 0 21.28 21.28 0 1 0-42.56 0Z" fill="#333333" p-id="5720"></path><path d="M512 64c-136 0-272 72.32-272 272 0 152.16 95.04 188.96 124.96 188.96A194.08 194.08 0 0 1 355.2 464a16 16 0 0 0-12.64-13.76c-39.52-8.8-52.16-66.08-39.36-99.2a28.8 28.8 0 0 1 18.24-16.96 16 16 0 0 1 20.48 12.64l18.08 61.12v-49.6a125.92 125.92 0 0 1 8.8-56.8 82.24 82.24 0 0 0-29.76-14.88 152.16 152.16 0 0 1 106.56 0c62.4 20.16 84 111.04 258.56 152.48a48 48 0 0 1-19.68 9.76A16 16 0 0 0 672 464a152.32 152.32 0 0 1-8.48 61.28c16 0 121.12-20.48 121.12-188.96C784 136.32 649.76 64 512 64z" fill="#333333" p-id="5721"></path></svg>