<?xml version="1.0" standalone="no"?><!DOCTYPE svg PUBLIC "-//W3C//DTD SVG 1.1//EN" "http://www.w3.org/Graphics/SVG/1.1/DTD/svg11.dtd"><svg t="1495203698072" class="icon" style="" viewBox="0 0 1024 1024" version="1.1" xmlns="http://www.w3.org/2000/svg" p-id="5035" xmlns:xlink="http://www.w3.org/1999/xlink" width="64" height="64"><defs><style type="text/css"></style></defs><path d="M512 961.44a987.84 987.84 0 0 0 384-76.96L871.36 768a101.92 101.92 0 0 0-98.88-77.28H251.84A101.92 101.92 0 0 0 152.96 768L128 884.16a988 988 0 0 0 384 77.28z" fill="#A15152" p-id="5036"></path><path d="M746.56 317.28a43.68 43.68 0 0 0-32-9.28c0-12.16-2.08-24.48-3.84-37.28C698.24 190.08 640 96 512 96s-185.6 94.08-197.28 174.72c-1.92 12.8-3.2 24.96-3.84 37.28a44 44 0 0 0-32 9.28c-16 13.28-22.4 37.28-16 65.92a101.12 101.12 0 0 0 66.08 77.76l14.88 4.48a203.04 203.04 0 0 0 67.52 112v64c-13.12 24.32-54.88 42.88-84.96 48.8a222.4 222.4 0 0 0 373.92 0c-26.24-7.52-72.8-28-84.48-48v-64a202.24 202.24 0 0 0 68.32-112.96l13.92-4.64a101.12 101.12 0 0 0 66.08-77.76c4.8-28.32-1.12-52.32-17.6-65.6z" fill="#FBD3CA" p-id="5037"></path><path d="M614.56 642.88v-59.2l-63.2 28.8a93.92 93.92 0 0 1-77.92 0l-63.2-28.8v18.24l176.8 177.76c51.04-18.4 80-36.16 112-88.32-26.24-7.68-72.96-28.16-84.48-48.48z" fill="#EAC5BD" p-id="5038"></path><path d="M720 316.96s3.2 0 6.4-8.48a46.56 46.56 0 0 0-12.48 0c0-12.16-2.08-24.48-3.84-37.28C698.56 190.08 640 96 512 96h-14.4l-5.12 23.2a942.24 942.24 0 0 0-56.16 334.24 1187.36 1187.36 0 0 0 8.8 149.28A150.56 150.56 0 0 0 512 625.44c40.48 0 147.2-49.12 170.56-160l13.92-4.64a116 116 0 0 0 11.36-4.96A89.44 89.44 0 0 0 752 390.08c8-41.44-5.44-79.36-32-73.12z" fill="#F3CAC2" p-id="5039"></path><path d="M431.52 408.8m-21.28 0a21.28 21.28 0 1 0 42.56 0 21.28 21.28 0 1 0-42.56 0Z" fill="#333333" p-id="5040"></path><path d="M593.44 408.8m-21.28 0a21.28 21.28 0 1 0 42.56 0 21.28 21.28 0 1 0-42.56 0Z" fill="#333333" p-id="5041"></path><path d="M824 615.84a64 64 0 0 1-40-53.6v-224C784 138.56 648.96 62.56 512 62.56c-160 0-272 92-272 291.68v208a59.2 59.2 0 0 1-40.64 53.6A32 32 0 0 0 179.84 656a170.4 170.4 0 0 0 25.6 46.4 101.44 101.44 0 0 1 46.56-11.36h73.28c30.08-5.92 71.84-24.48 84.96-48.8v-64a210.72 210.72 0 0 1-47.2-57.92 253.28 253.28 0 0 1-18.56-61.28 91.2 91.2 0 0 1-41.92-109.92c8.48-21.92 36.32-19.36 36.32-19.36l8.32 50.24h12.32v-41.12c0-33.28 17.6-49.76 51.68-49.76 48 0 58.08 12.64 129.6 51.84a138.24 138.24 0 0 0 124-3.04 64 64 0 0 1 3.36 19.2v22.88h12.32l7.52-50.24s27.84-2.56 36.32 19.36a91.2 91.2 0 0 1-41.92 109.6 325.76 325.76 0 0 1-9.12 36.48 205.92 205.92 0 0 1-59.52 83.36v64c11.68 20.32 58.24 40.8 84.48 48h73.28a101.44 101.44 0 0 1 46.24 11.36A170.4 170.4 0 0 0 844.16 656a32 32 0 0 0-20.16-40.16z" fill="#333333" p-id="5042"></path></svg>