<?xml version="1.0" standalone="no"?><!DOCTYPE svg PUBLIC "-//W3C//DTD SVG 1.1//EN" "http://www.w3.org/Graphics/SVG/1.1/DTD/svg11.dtd"><svg t="1495203646494" class="icon" style="" viewBox="0 0 1024 1024" version="1.1" xmlns="http://www.w3.org/2000/svg" p-id="3277" xmlns:xlink="http://www.w3.org/1999/xlink" width="64" height="64"><defs><style type="text/css"></style></defs><path d="M487.316289 17.652593c-2.019576 0.149598-8.601899 0.598393-14.585829 1.047188-78.53908 5.834332-158.274945 32.38802-225.369759 75.09832C121.99737 173.533966 39.194741 303.983638 21.018554 450.290723c-2.917166 23.486925-3.365961 32.088824-3.365961 61.709277s0.448795 38.222352 3.365961 61.709277c10.920672 87.88897 45.328269 171.140394 99.707231 241.227173 24.833309 32.014025 56.32374 63.504456 88.337765 88.337765 70.086779 54.378963 153.338203 88.78656 241.227173 99.707231 23.486925 2.917166 32.088824 3.365961 61.709277 3.365961s38.222352-0.448795 61.709277-3.365961c87.88897-10.920672 171.140394-45.328269 241.227173-99.707231 32.014025-24.833309 63.504456-56.32374 88.337765-88.337765 54.378963-70.086779 88.78656-153.338203 99.707231-241.227173 2.917166-23.486925 3.365961-32.088824 3.365961-61.709277s-0.448795-38.222352-3.365961-61.709277c-10.920672-87.88897-45.328269-171.140394-99.707231-241.227173-60.512491-78.015486-143.240321-136.583199-236.140833-167.026443C629.509423 29.695252 594.204237 22.439737 552.391527 18.699781c-8.751497-0.82279-57.670124-1.570782-65.075238-1.047188z m50.115413 3.291162c124.690139 6.80672 239.431994 58.717312 326.124178 147.429072 96.565668 98.95924 146.681081 231.652885 139.425566 369.582469-0.373996 8.377502-0.972389 16.081812-1.271585 17.203798-0.448795 1.869978-1.047188 1.047188-6.432724-8.601899-37.025566-66.795617-90.207743-127.607305-152.141417-173.907962-30.218846-22.589335-61.260482-41.214317-95.368883-57.370928l-11.07027-5.235938-8.452301-11.219869c-31.191234-41.363915-74.125931-81.605844-118.257414-110.702703-28.872462-19.073776-66.272023-37.623959-92.900512-46.07626l-5.460336-1.720379-6.133528 2.468371C465.250548 159.097736 415.135135 188.942586 378.109569 218.712637c-15.109423 12.117458-23.561724 19.821768-40.466326 36.65157-17.0542 17.128999-27.825274 29.321256-39.26954 44.580278-5.759533 7.629511-6.058729 7.928707-11.668663 10.397078-8.5271 3.739956-32.986413 16.007012-42.485902 21.242951-72.480351 39.942732-137.630387 98.734843-186.175018 168.073631-8.901096 12.715851-21.691746 33.136012-29.321257 46.89905-5.385537 9.649087-5.98393 10.471877-6.432724 8.601899-0.299196-1.121987-0.897589-8.826297-1.271585-17.203798C11.96786 365.24412 93.05011 202.331629 236.739226 104.569175 324.104602 45.103871 431.590942 15.184222 537.431702 20.943755z m-13.987436 136.957195c11.444266 4.26355 26.329291 10.696275 31.939226 13.688239l3.739956 2.019577-4.113952-0.448795c-38.745946-3.964354-69.862381-1.346384-94.022498 7.853908-7.405113 2.842367-10.771074 4.936742-12.042659 7.779109-1.944777 3.964354 2.019576 9.275091 6.357925 8.452301 1.196786-0.224397 4.787144-1.570782 8.078306-2.991965 16.829803-7.554711 45.25347-11.294668 72.330752-9.574288 15.109423 0.972389 24.982907 2.243974 40.241929 5.011541 5.535135 1.047188 11.219869 1.72038 12.566252 1.495983 2.243974-0.299196 4.039153 0.673192 16.605406 9.125493 7.779109 5.16114 14.062235 9.499489 13.987436 9.574287-0.074799 0.074799-3.515559-0.448795-7.629511-1.271585-25.356903-4.787144-51.461797-7.405113-80.483857-7.928707-33.28561-0.598393-56.697736 1.346384-84.149014 6.88152-20.345362 4.188751-44.729876 11.893061-51.237399 16.306208-4.787144 3.216362-4.787144 8.751497-0.074799 11.14507 2.842367 1.421183 3.066764 1.346384 13.987436-3.141563 14.735427-6.058729 37.175164-11.743462 59.091307-14.885026 18.849379-2.692768 30.144047-3.365961 54.229365-3.36596 26.179693 0 42.6355 1.196786 67.618407 4.861943 13.538641 1.944777 44.056684 7.779109 50.564208 9.649087 2.617969 0.747991 10.172681 6.956318 24.982907 20.569758 3.964354 3.665157 7.105917 6.731921 6.956319 6.806721-0.074799 0.149598-4.712345-1.121987-10.24748-2.767568-87.589774-25.955296-175.628342-28.423667-258.281374-7.330314-20.868955 5.310738-49.965814 15.782615-56.772534 20.345362-4.413148 3.066764-4.338349 8.377502 0.299196 10.920672 2.468371 1.421183 4.562747 0.897589 14.436231-3.515559 35.978378-15.932213 89.908546-27.002484 139.12637-28.423667 52.88298-1.645581 101.203214 4.413148 151.917019 18.924178 13.015047 3.739956 37.399562 11.743462 39.718335 13.015048 0.897589 0.523594 16.007012 17.95179 18.325785 21.168152l1.421184 2.019576-5.086341-1.944777c-11.07027-4.26355-35.753981-12.267056-48.843827-15.857414-49.442221-13.463842-94.920088-19.522571-146.980278-19.522572-22.364938 0-37.324763 0.673192-56.847334 2.692769-43.009496 4.338349-88.936158 14.660628-128.205697 28.797662-5.535135 2.019576-10.172681 3.515559-10.24748 3.44076-0.747991-0.747991 17.203798-20.49496 31.415632-34.557195 34.706793-34.631994 73.826735-63.354858 120.127392-88.337765 16.007012-8.601899 41.438714-20.420161 43.981884-20.49496 0.598393 0 5.609934 1.72038 11.219869 3.814756zM544.537619 276.008766c106.513952 6.507524 206.52038 43.233893 291.492184 107.037545 67.468809 50.639007 121.99737 115.938641 159.696128 191.036961l4.562747 8.975895-0.89759 5.98393c-1.495982 9.873484-5.834332 31.041636-9.050694 43.757487-18.475383 73.527538-53.855369 141.893937-103.671585 200.087656-12.267056 14.436231-39.344339 41.513514-53.780569 53.780569-73.303141 62.681665-162.98729 102.624397-257.308985 114.517458-24.908108 3.141563-34.706793 3.739956-63.579255 3.739957s-38.671147-0.598393-63.579255-3.739957c-94.321695-11.893061-183.706647-51.686194-257.308985-114.442659-14.286633-12.192257-41.438714-39.344339-53.780569-53.855368C87.514974 774.619722 52.134989 706.328123 33.659606 632.800584c-3.216362-12.715851-7.554711-33.884003-9.050694-43.757487l-0.89759-5.98393 4.562747-8.975895C77.940687 475.049233 157.078159 393.293791 254.765814 340.111614c67.543608-36.801169 145.559094-59.240906 222.826589-64.028049 14.361432-0.897589 52.808181-0.897589 66.945216-0.074799z" fill="" p-id="3278"></path><path d="M496.292184 285.732652c-13.015047 1.121987-28.947261 5.08634-40.167129 10.023082-4.637546 2.094375-5.684733 3.066764-6.283127 6.283126-0.373996 1.944777-0.074799 2.692768 1.795179 4.637546 1.271585 1.196786 2.991965 2.243974 3.889555 2.243974 0.972389 0 4.712345-1.196786 8.377502-2.692769 9.275091-3.665157 21.691746-6.731921 32.088824-7.779108 19.672169-2.019576 38.297151 2.842367 51.386997 13.463842 7.031118 5.684733 8.975895 6.133528 12.715851 2.767567 1.121987-1.047188 1.645581-2.393572 1.645581-4.26355 0-2.318773-0.523594-3.291161-3.36596-5.90913-7.70431-7.105917-19.073776-13.164646-30.518043-16.156611-5.759533-1.495982-21.392549-3.665157-24.085318-3.291162-0.373996 0.074799-3.739956 0.373996-7.479912 0.673193zM488.438276 372.87363c-47.198247 5.759533-89.160555 26.179693-121.99737 59.540103-29.246457 29.620453-48.095836 65.67363-55.575749 106.513951l-1.72038 8.975895-6.731921 3.365961c-7.105917 3.590358-10.771074 6.058729-15.33382 10.397078-7.554711 7.031118 0.673192 15.33382 8.676698 8.751497 3.515559-2.842367 10.172681-7.180716 11.07027-7.180715 0.299196 0 0.598393 5.310738 0.598393 11.743462 0 6.507524 0.373996 15.707816 0.822791 20.420161 8.227904 89.384953 75.09832 163.660482 162.98729 181.313075 5.16114 1.047188 12.566253 2.318773 16.455807 2.842367 9.200292 1.196786 39.419138 1.196786 48.61943 0 46.001461-6.133528 85.495398-24.982907 117.73382-56.248941 16.979401-16.455807 29.919649-33.884003 40.092331-53.855369 15.33382-30.368444 22.439737-59.988897 22.439737-94.471293 0-6.432725 0.149598-11.743462 0.373995-11.743462 0.673192 0 8.003506 4.861943 11.14507 7.405113 2.767568 2.243974 5.609934 2.842367 8.302702 1.869978 1.869978-0.747991 3.515559-4.637546 2.991965-7.105917-0.673192-2.917166-9.275091-9.649087-17.577794-13.688239-3.515559-1.645581-6.507524-3.141563-6.657122-3.216363-0.074799-0.074799-0.673192-2.917166-1.271585-6.357925-14.436231-83.924617-79.287071-150.645435-162.014901-166.727246-18.849379-3.665157-45.552666-4.712345-63.429657-2.543171z m40.017531 23.636523c21.766545 2.54317 48.170636 11.07027 66.421622 21.39255 57.819722 32.687217 91.32973 94.097297 87.215778 159.54653-2.094375 33.884003-13.463842 64.701242-33.809204 92.002922-6.432725 8.5271-20.345362 23.03813-28.573265 29.695252-24.384514 19.672169-53.331775 32.238422-85.271001 37.025566-8.826297 1.271585-36.053178 1.271585-44.879474 0-31.939226-4.787144-60.886486-17.353397-85.271001-37.025566-8.227904-6.657122-22.140541-21.168152-28.573265-29.695252-20.345362-27.30168-31.714828-58.118919-33.809204-92.002922-3.066764-48.769028 14.810226-96.116874 49.292623-130.748868 31.56523-31.714828 67.917604-48.61943 109.954711-51.312198 5.759533-0.373996 19.372973 0.224397 27.30168 1.121986z" fill="" p-id="3279"></path><path d="M498.162162 421.941855c-6.283126 1.047188-15.857414 4.637546-21.766545 8.153105-6.80672 4.039153-16.156611 12.940248-20.569759 19.59737-9.649087 14.51103-13.089847 34.033601-8.826296 50.713806 1.421183 5.834332 5.909131 15.707816 9.34989 20.719357 8.377502 12.267056 21.841344 21.691746 36.950767 25.730899 8.452301 2.318773 22.963331 2.318773 31.415632 0C549.923156 540.049671 568.174142 519.853908 572.213294 494.422206c2.318773-14.959825-1.421183-31.864427-10.023082-44.729876-4.413148-6.657122-13.763039-15.558218-20.569759-19.59737-12.566253-7.479912-28.872462-10.546676-43.458291-8.153105z m24.982907 4.039153c10.696275 2.767568 18.849379 7.255515 26.778087 14.51103 21.093353 19.447772 25.805698 49.591819 11.593864 74.873923-4.113952 7.255515-13.987436 17.353397-21.31775 21.691745-18.849379 11.145069-42.261505 11.294668-61.48488 0.523594-7.554711-4.26355-18.026589-14.660628-22.21534-22.215339-8.5271-15.184222-10.397078-32.088824-5.385536-48.395033 6.731921-21.766545 26.179693-38.521549 48.918626-42.111907 5.834332-0.897589 17.502995-0.299196 23.112929 1.121987z" fill="" p-id="3280"></path><path d="M503.697297 445.727977c-1.72038 0.747991-3.889554 2.54317-4.861943 3.889554-1.795179 2.468371-1.795179 2.842367-1.795179 18.250986 0 15.408619 0 15.782615 1.795179 18.250986 2.019576 2.767568 6.80672 5.310738 10.172681 5.310738s8.153104-2.54317 10.172681-5.310738c1.795179-2.468371 1.795179-2.842367 1.795179-18.250986 0-15.408619 0-15.782615-1.795179-18.250986-2.019576-2.767568-6.80672-5.310738-10.172681-5.310738-1.196786 0-3.590358 0.673192-5.310738 1.421184zM517.98393 810.598101c-51.087801 2.393572-90.731337 7.479912-133.815632 17.0542-17.577794 3.964354-41.214317 10.471877-43.682688 12.042659-2.917166 1.869978-3.216362 4.039153-2.019576 13.61344 8.901096 68.142001 49.741417 109.131921 120.800584 121.249379 16.904602 2.917166 24.534112 3.44076 48.61943 3.365961 25.057706 0 37.997955-0.897589 62.457268-4.413148 13.68824-1.944777 36.72637-6.133528 48.245435-8.676699 23.412126-5.235939 41.513514-22.065741 55.650548-51.686194 9.649087-20.195763 17.278598-46.824251 21.018553-73.527538 1.271585-9.050694 0.673192-11.444266-3.141563-12.940249-6.133528-2.468371-46.824251-9.42469-70.161578-12.042659-34.033601-3.814755-75.322717-5.460336-103.970781-4.039152zM573.709277 823.538349c35.903579 1.72038 66.795617 5.460336 102.325201 12.416655l6.881519 1.346384-0.448795 2.617969c-10.097882 59.988897-30.218846 98.360847-57.520526 109.805113-5.98393 2.54317-34.482396 8.153104-57.96932 11.444266-18.77458 2.617969-33.435208 3.814755-51.611395 4.26355-35.305186 0.897589-63.953251-3.216362-88.337765-12.566252l-5.609934-2.169175-11.593865-35.679182c-6.357925-19.59737-11.96786-36.127977-12.491453-36.65157-0.523594-0.523594-1.495982-0.972389-2.094376-0.972389-0.598393 0-7.031118 5.609934-14.211833 12.491454-7.255515 6.956318-13.389043 12.641052-13.68824 12.79065-0.972389 0.299196-7.255515-13.912637-10.023082-22.664135-2.468371-7.629511-5.011541-19.223375-6.133528-27.376479l-0.523594-3.440759 11.519065-3.066765c65.524032-17.577794 142.791527-25.805698 211.531921-22.589335z m-177.722717 69.338788c11.294668 34.856392 18.400584 57.296129 18.250986 57.520526-0.448795 0.373996-14.885026-8.826297-20.120965-12.790651-8.901096-6.80672-25.282104-23.711322-25.356902-26.329291-0.074799-0.673192 24.010519-24.085318 24.833309-24.160117 0.224397 0 1.346384 2.617969 2.393572 5.759533z" fill="" p-id="3281"></path></svg>