<?xml version="1.0" standalone="no"?><!DOCTYPE svg PUBLIC "-//W3C//DTD SVG 1.1//EN" "http://www.w3.org/Graphics/SVG/1.1/DTD/svg11.dtd"><svg t="1495203749168" class="icon" style="" viewBox="0 0 1024 1024" version="1.1" xmlns="http://www.w3.org/2000/svg" p-id="6292" xmlns:xlink="http://www.w3.org/1999/xlink" width="64" height="64"><defs><style type="text/css"></style></defs><path d="M555.04 874.56m-12 0a12 12 0 1 0 24 0 12 12 0 1 0-24 0Z" fill="#1296db" p-id="6293"></path><path d="M933.44 873.12a15.04 15.04 0 0 0 0-1.76l-17.6-76.96a112 112 0 0 0-90.88-89.12l-126.88-22.08-36-70.08a16 16 0 0 0-14.08-8.64h-0.96v-33.92a125.92 125.92 0 0 0 32-70.56v-16a104.64 104.64 0 0 0 44-70.72c6.56-30.72 4.16-52.64-7.36-66.72a41.28 41.28 0 0 0-10.4-8.8 101.44 101.44 0 0 0 28.8-74.88v-91.2c0-34.88-31.04-48-44.8-54.4a311.52 311.52 0 0 0-154.72-33.6l64-24c-295.68-35.52-272 88.96-272 88.96l-29.76 22.08c-29.6 22.08-24.64 48-24.64 83.84A119.68 119.68 0 0 0 300.8 336a40.64 40.64 0 0 0-11.68 9.6c-11.52 14.08-13.92 36-7.36 66.72a104.64 104.64 0 0 0 44 70.72v16a128 128 0 0 0 33.28 72.8v32a16 16 0 0 0-13.44 8.48l-36.64 70.4-112 21.12a112 112 0 0 0-89.12 88.64L87.84 883.2a14.88 14.88 0 0 0 0 1.6 16 16 0 0 0 3.2 11.52l2.08 2.24 2.56 1.76 1.28 0.96a999.68 999.68 0 0 0 406.08 85.28 998.4 998.4 0 0 0 422.4-92.64 16 16 0 0 0 8-20.8z m-235.2-157.28l121.28 21.12a80 80 0 0 1 64.96 64l16 68.96a965.92 965.92 0 0 1-381.12 84.16v-88.8a40.32 40.32 0 0 1 10.4-26.56l61.6-85.76 38.72 60.8a20.32 20.32 0 0 0 19.52 9.12 19.84 19.84 0 0 0 16-13.44z m-268.48 0l-38.56-71.52V606.4a251.52 251.52 0 0 0 48.96 34.72 138.56 138.56 0 0 0 60 9.12h5.12a131.52 131.52 0 0 0 58.24-9.12 254.24 254.24 0 0 0 51.52-37.12v43.36l-36.8 68.32-73.92 103.04a70.24 70.24 0 0 0-4.16 5.76z m136.16-161.6a16 16 0 0 1-16 16h-9.6a6.4 6.4 0 0 1-6.4-6.4 9.6 9.6 0 0 0-9.6-9.6H480a9.6 9.6 0 0 0-9.6 9.6 6.4 6.4 0 0 1-6.4 6.4h-9.6a16 16 0 0 1-16-16v-23.68a16 16 0 0 1 12-16 221.28 221.28 0 0 1 52-8.64 220.64 220.64 0 0 1 52 8.64 16 16 0 0 1 12 16z m104.32 144l-26.72 76.8-33.12-52 37.12-68.96zM313.12 406.4c-5.92-27.84-1.28-37.12 0.96-40a11.52 11.52 0 0 1 8-3.52c4 5.12 8.32 10.72 12.48 16s4.96 9.76 7.36 16v-4.8l0.96 1.44v-72.32a78.88 78.88 0 0 1 49.44-67.52s4.96 42.08 70.88 66.08c0 0-13.44-44.32 6.72-69.6l0.8 0.96c6.88 7.36 57.76 57.12 189.76 57.44 1.12 22.56 0 50.56 0 85.44l1.6-2.4v5.76a196.64 196.64 0 0 1 8.64-18.24q5.6-7.68 11.2-14.24a11.2 11.2 0 0 1 7.84 3.52c2.24 2.72 6.72 12.16 0.8 40a73.12 73.12 0 0 1-28.64 49.44V435.2a4 4 0 0 0-7.84-1.28L633.28 496a32 32 0 0 1-12.64 16l-23.04 16a48 48 0 0 0-35.52-44 247.04 247.04 0 0 0-60.16-9.6 247.68 247.68 0 0 0-60.16 9.6A48 48 0 0 0 406.08 528l-23.04-16a32 32 0 0 1-12.64-16l-20.8-62.24a4 4 0 0 0-7.84 1.28v20.64a73.12 73.12 0 0 1-28.64-49.28z m46.88 248.16l37.28 69.12-33.12 52-27.2-76.96zM139.36 800a80 80 0 0 1 64-64l106.08-20 32.96 93.12a20 20 0 0 0 16 13.92h2.56a20 20 0 0 0 16.96-9.28L416 753.92 487.2 864v90.88a966.72 966.72 0 0 1-365.12-77.76z" fill="#1296db" p-id="6294"></path><path d="M400 452.96h32a41.76 41.76 0 0 0 34.88-18.72l17.76-26.56a35.2 35.2 0 0 0 4.96-11.84 25.28 25.28 0 0 1 23.68 0 35.2 35.2 0 0 0 4.96 11.84l17.76 26.56a41.92 41.92 0 0 0 34.88 18.72h32.96a54.56 54.56 0 0 0 54.56-54.56v-10.4A35.52 35.52 0 0 0 624 352h-76.16a34.24 34.24 0 0 0-24.8 10.08 37.76 37.76 0 0 0-5.92 8.48 50.88 50.88 0 0 0-30.56 0 37.76 37.76 0 0 0-6.08-8.48 34.24 34.24 0 0 0-24.64-10.08h-75.52a35.52 35.52 0 0 0-35.36 35.36v10.4A54.56 54.56 0 0 0 400 452.96z" fill="#1296db" p-id="6295"></path></svg>