<?xml version="1.0" standalone="no"?><!DOCTYPE svg PUBLIC "-//W3C//DTD SVG 1.1//EN" "http://www.w3.org/Graphics/SVG/1.1/DTD/svg11.dtd"><svg t="1495203742022" class="icon" style="" viewBox="0 0 1024 1024" version="1.1" xmlns="http://www.w3.org/2000/svg" p-id="6118" xmlns:xlink="http://www.w3.org/1999/xlink" width="64" height="64"><defs><style type="text/css"></style></defs><path d="M585.44 386.56m-16 0a16 16 0 1 0 32 0 16 16 0 1 0-32 0Z" fill="#d4237a" p-id="6119"></path><path d="M433.44 386.56m-16 0a16 16 0 1 0 32 0 16 16 0 1 0-32 0Z" fill="#d4237a" p-id="6120"></path><path d="M958.72 855.52c0-1.12-8.8-27.36-23.2-64-20.96-54.56-47.04-79.52-90.72-87.52l-142.88-17.76-44.64-75.2v-27.84c17.6-20.48 25.76-46.08 27.04-92.96 36-13.44 46.4-71.68 48.8-91.2a87.52 87.52 0 0 0-6.88-51.2l2.08-1.92a240 240 0 0 0 5.76-87.04c-9.76-83.84-18.4-99.04-97.28-153.44A220.96 220.96 0 0 0 512 64a220.8 220.8 0 0 0-124 41.28c-78.88 54.56-87.52 69.6-97.28 153.44a240 240 0 0 0 4.96 82.72 80 80 0 0 0-10.88 57.44c3.2 24.8 13.92 78.4 48 91.2a380.32 380.32 0 0 0 4.64 50.72A84.16 84.16 0 0 0 368 592v17.44l-1.28 1.44-40.48 68.16-140.96 18.56c-48 8.96-70.4 48-88 85.12-19.2 40.16-32 69.6-32 70.88a16.8 16.8 0 0 0 1.6 14.56 14.24 14.24 0 0 0 7.2 6.4A997.6 997.6 0 0 0 512 975.04a997.6 997.6 0 0 0 438.56-100.16 19.2 19.2 0 0 0 6.08-5.44 16.8 16.8 0 0 0 2.08-13.92z m-53.12-52.96c8 20.8 14.24 38.08 18.08 49.28A967.52 967.52 0 0 1 768 908.96v-32c0-27.2 7.52-102.88 30.88-146.4l41.12 5.44c31.2 5.44 48.96 23.52 65.6 66.56z m-513.28-64L464 762.88v12.48h-32a8 8 0 0 0 0 16h32v12.48l-71.68 23.84a224 224 0 0 1 0.16-88.64z m7.52-128c32 16 82.56 41.44 107.68 41.44a229.6 229.6 0 0 0 105.76-34.72l11.2-7.68v14.4a176 176 0 0 1-84.8 94.24 16 16 0 0 0-8 16h-39.52a16 16 0 0 0-8-16A176 176 0 0 1 400 625.6zM528 800h-32v-32h32z m-48 32h64a25.6 25.6 0 0 0 7.36 3.52L512 877.28l-40.96-41.76A30.08 30.08 0 0 0 480 832z m152-3.68L560 803.84v-12.48h33.28a8 8 0 0 0 0-16H560v-12.48l71.52-24a226.88 226.88 0 0 1 0.16 88.8z m41.76-126.08l-11.84 26.72a32 32 0 0 0-14.56-17.44 32 32 0 0 0-25.6-2.24l-23.36 7.84a199.36 199.36 0 0 0 48-61.28z m-18.72-356.32a32 32 0 0 0-21.76-8.96H552a32 32 0 0 0-28.48 18.4 51.04 51.04 0 0 0-29.76 0 32 32 0 0 0-28.48-18.4H384a32 32 0 0 0-21.92 8.96l-13.44-6.56v-22.4c0-121.44 72-155.04 142.4-171.84a75.84 75.84 0 0 1 35.04 0c70.4 16.8 142.4 50.4 142.4 171.84v22.08zM640 368v9.44a7.2 7.2 0 0 1 0 2.4l-10.56 32a7.36 7.36 0 0 1-7.04 5.12h-59.84a7.36 7.36 0 0 1-7.04-5.12l-10.56-32a7.2 7.2 0 0 1 0-2.4V368a7.36 7.36 0 0 1 7.36-7.36h81.28a7.36 7.36 0 0 1 6.4 7.36z m-168 0v9.44a7.36 7.36 0 0 1 0 2.4l-10.56 32a7.36 7.36 0 0 1-7.04 5.12h-59.84a7.36 7.36 0 0 1-7.04-5.12l-10.56-32a7.2 7.2 0 0 1 0-2.4V368a7.36 7.36 0 0 1 7.36-7.36h81.28a7.36 7.36 0 0 1 6.88 7.36z m-124 92.64c-16 0-27.84-33.28-32-66.08a48.8 48.8 0 0 1 4.96-34.56 16 16 0 0 0 3.52 2.56l27.84 13.6v0.96a32 32 0 0 0 1.6 9.92l10.56 32a32 32 0 0 0 29.76 21.44h60a32 32 0 0 0 29.76-21.44l10.56-32a31.04 31.04 0 0 0 1.12-7.2 25.28 25.28 0 0 1 24.96 0 32 32 0 0 0 1.12 7.2l10.56 32a32 32 0 0 0 29.76 21.44h60a32 32 0 0 0 29.76-21.44l10.56-32a32 32 0 0 0 1.6-9.92v-0.96l27.2-13.6a17.12 17.12 0 0 0 4.32-2.56 49.12 49.12 0 0 1 4.8 34.56c-4.16 32-16.96 66.08-32.96 66.08a16 16 0 0 0-16 16c0 74.08-12.48 85.6-56 114.72a198.08 198.08 0 0 1-88 29.28c-15.04 0-62.24-20.32-112-48a52.96 52.96 0 0 1-26.72-37.28 386.72 386.72 0 0 1-4.48-58.88 16 16 0 0 0-15.68-15.52zM378.08 656a199.36 199.36 0 0 0 48 61.28l-23.36-7.84a32 32 0 0 0-25.6 2.24 32 32 0 0 0-14.56 17.44l-11.84-26.72z m-187.52 73.92l25.6-3.36c26.4 42.72 38.88 122.72 38.88 150.72v32a967.68 967.68 0 0 1-153.76-56.32c5.44-12.48 13.92-32 24.96-54.88C144 758.72 161.28 736 190.56 729.92z" fill="#d4237a" p-id="6121"></path></svg>