<?xml version="1.0" standalone="no"?><!DOCTYPE svg PUBLIC "-//W3C//DTD SVG 1.1//EN" "http://www.w3.org/Graphics/SVG/1.1/DTD/svg11.dtd"><svg t="1495203788045" class="icon" style="" viewBox="0 0 1024 1024" version="1.1" xmlns="http://www.w3.org/2000/svg" p-id="7608" xmlns:xlink="http://www.w3.org/1999/xlink" width="64" height="64"><defs><style type="text/css"></style></defs><path d="M431.2 407.52m-21.28 0a21.28 21.28 0 1 0 42.56 0 21.28 21.28 0 1 0-42.56 0Z" fill="#d81e06" p-id="7609"></path><path d="M911.04 887.36a14.88 14.88 0 0 0 0-6.08 15.04 15.04 0 0 0 0-1.6l-24.16-116.48a120.32 120.32 0 0 0-114.4-91.2h-76.64a178.4 178.4 0 0 1-65.12-35.2V592a213.44 213.44 0 0 0 50.24-69.76C715.36 512 784 472.64 784 336 784 136.32 649.76 64 512 64S240 136.32 240 336c0 125.76 64.8 172.64 104.16 185.12A214.24 214.24 0 0 0 394.4 592v44.48A124.48 124.48 0 0 1 331.2 672h-80a120.32 120.32 0 0 0-114.56 91.68L112 880v1.44a16 16 0 0 0 1.76 9.28l1.6 2.4a16 16 0 0 0 2.24 2.24l2.56 1.76 1.44 0.96A1000.8 1000.8 0 0 0 512 976a1000.96 1000.96 0 0 0 389.76-78.24 15.04 15.04 0 0 0 1.6-1.12l2.08-1.44a16 16 0 0 0 2.56-2.56l1.28-2.08a16 16 0 0 0 1.76-3.2zM358.4 460.8a16 16 0 0 0-10.88-12l-14.08-4.32a101.12 101.12 0 0 1-10.4-4.48 86.72 86.72 0 0 1-19.68-89.44 28.8 28.8 0 0 1 18.24-16.96 16 16 0 0 1 20.48 12.64l18.08 61.12v-49.12a125.92 125.92 0 0 1 8.8-56.8 82.24 82.24 0 0 0-29.76-14.88 152.16 152.16 0 0 1 106.56 0c43.04 13.92 66.88 61.76 135.04 103.52a20.8 20.8 0 0 0-8.96 16.8 21.12 21.12 0 0 0 42.24 0.96 449.92 449.92 0 0 0 88.96 30.72 96.96 96.96 0 0 1-11.2 4.96l-13.92 4.64a16 16 0 0 0-10.72 11.84c-21.28 101.12-96 147.2-154.88 147.2s-132.64-45.28-153.92-146.4z m65.92 187.84a16 16 0 0 0 1.92-7.52v-26.24A170.24 170.24 0 0 0 512 640a171.68 171.68 0 0 0 86.24-24.8c0 30.08 0 30.88 2.24 34.24 12.16 21.12 48 38.56 72.96 48A214.72 214.72 0 0 1 512 775.84a210.4 210.4 0 0 1-160-76.64c29.44-10.08 60-27.2 72.32-50.56z m-277.6 224l21.92-101.92a87.84 87.84 0 0 1 83.2-66.72h64a238.24 238.24 0 0 0 393.44 0h64a87.84 87.84 0 0 1 83.2 66.4l21.76 102.72A969.12 969.12 0 0 1 512 944a968.96 968.96 0 0 1-365.44-71.2z" fill="#d81e06" p-id="7610"></path></svg>