<?xml version="1.0" standalone="no"?><!DOCTYPE svg PUBLIC "-//W3C//DTD SVG 1.1//EN" "http://www.w3.org/Graphics/SVG/1.1/DTD/svg11.dtd"><svg t="1495203731054" class="icon" style="" viewBox="0 0 1024 1024" version="1.1" xmlns="http://www.w3.org/2000/svg" p-id="5844" xmlns:xlink="http://www.w3.org/1999/xlink" width="64" height="64"><defs><style type="text/css"></style></defs><path d="M904.48 900.16a12.48 12.48 0 0 0 1.92-5.6 16 16 0 0 0 0-3.2v-1.28l-17.92-118.72c-8.48-57.12-65.44-91.52-116.48-92.64l-102.4-26.56a16 16 0 0 0-11.04 1.12l-10.08 5.44a89.6 89.6 0 0 1-23.04-16v-40a201.76 201.76 0 0 0 28.96-30.08 59.36 59.36 0 0 0 30.88-17.28 12 12 0 0 1-7.84-11.2v-4a12 12 0 0 1 12-12 11.84 11.84 0 0 1 11.2 8.32 182.24 182.24 0 0 0 24.64-54.72c1.28-4.8 2.08-9.6 3.04-14.4a133.6 133.6 0 0 0 36.32-65.6 256 256 0 0 0-7.84-176 89.12 89.12 0 0 0-7.36-17.76c-80-137.44-154.56-175.04-225.6-137.44a17.28 17.28 0 0 1-3.04 1.12 11.84 11.84 0 0 1 4.96 9.44v4.48h-23.68v-4.32a11.84 11.84 0 0 1 4.96-9.44 17.28 17.28 0 0 1-3.04-1.12c-72-37.76-145.28 0-225.92 137.28a89.12 89.12 0 0 0-7.84 18.24 256 256 0 0 0-7.84 176 135.52 135.52 0 0 0 34.56 64c0.96 5.28 1.92 10.56 3.36 16a181.28 181.28 0 0 0 25.92 56.48 11.84 11.84 0 0 1 11.52-9.92 12 12 0 0 1 12 12v3.2a11.84 11.84 0 0 1-9.12 11.36 57.44 57.44 0 0 0 32 17.44 201.6 201.6 0 0 0 28.64 29.6v39.2c-10.72 14.56-41.92 29.44-69.12 36.64H256c-57.6 0-109.28 40.64-117.76 92.32l-20.64 117.6v1.28a17.6 17.6 0 0 0 0 6.24 15.04 15.04 0 0 0 5.12 7.52l2.72 1.76 1.12 0.8a1001.12 1001.12 0 0 0 386.56 76.96A1001.28 1001.28 0 0 0 896 907.2h0.96a16 16 0 0 0 2.72-1.76 12.48 12.48 0 0 0 3.84-4.48z m-475.2 46.72c-9.76-0.8-19.68-1.92-29.44-3.04a11.84 11.84 0 0 0-2.88-10.56 12 12 0 0 0-16.96 0l-2.88 2.72a11.68 11.68 0 0 0-3.04 5.28c-8.64-1.28-17.28-2.72-25.92-4.32 86.56-85.12 265.76-222.4 320-251.68l11.36 2.88a11.84 11.84 0 0 0 1.6 10.4 12 12 0 0 0 16 2.56l3.2-2.4a11.68 11.68 0 0 0 3.36-4.16l25.44 6.56a3374.4 3374.4 0 0 0-299.52 245.12z m272-446.24a12 12 0 0 1-24 0V496a12 12 0 1 1 24 0z m-138.24-240a12.8 12.8 0 0 1-10.08 4.96 11.52 11.52 0 0 1-6.72-2.08 11.52 11.52 0 0 1-3.2-16l0.96-1.28a12 12 0 1 1 19.04 14.56z m-8.16-38.56l1.28 1.76a12 12 0 1 1-20.32 12.8 12.48 12.48 0 0 1 3.04-16 11.52 11.52 0 0 1 16.48 0.64z m-26.08-18.56h1.44a12 12 0 0 1-8 22.56 12.48 12.48 0 0 1-7.84-16 11.52 11.52 0 0 1 14.88-7.36z m-16 65.76a16 16 0 1 1 16-16 16 16 0 0 1-15.04 15.36z m-12-144a11.84 11.84 0 0 1 3.04-7.68h17.92a11.84 11.84 0 0 1 3.04 7.68v4a12 12 0 0 1-24 0z m0 44a12 12 0 0 1 24 0v4a12 12 0 0 1-24 0z m-4.64 33.92h1.44a12 12 0 1 1 7.04 22.88 12.48 12.48 0 0 1-3.68 0 12.32 12.32 0 0 1-11.68-8.16 11.52 11.52 0 0 1 7.84-14.72z m-25.76 19.2l0.96-1.28a12 12 0 1 1 19.04 14.56 12.8 12.8 0 0 1-10.08 4.96 11.52 11.52 0 0 1-6.72-2.08 11.52 11.52 0 0 1-2.24-16.16z m-6.4 24.16l0.96-1.28a12 12 0 1 1 19.04 14.56 12.8 12.8 0 0 1-10.08 4.96 11.52 11.52 0 0 1-6.72-2.08 11.52 11.52 0 0 1-3.2-16.16z m-114.24 253.92a12 12 0 1 1-24 0V496a12 12 0 0 1 24 0z m9.92-33.12a16 16 0 0 0-9.92-11.68 12 12 0 0 1-24 0v-4a11.68 11.68 0 0 1 0-3.52 73.44 73.44 0 0 1-23.84-29.44l4-2.88a214.24 214.24 0 0 0 32.96-34.08l13.6 34.4a4.48 4.48 0 0 0 8.64-1.6v-66.56c25.12-46.24 33.44-86.08 72.48-86.08a125.44 125.44 0 0 1 38.08 5.6h-0.8l-0.96 1.28a11.52 11.52 0 0 0 3.2 16 11.52 11.52 0 0 0 6.88 3.2 12.8 12.8 0 0 0 10.08-4.96 11.68 11.68 0 0 0 2.24-6.88 44.8 44.8 0 0 0 6.08 2.4 11.84 11.84 0 0 0-9.44 8 12.16 12.16 0 0 0 7.68 16 11.36 11.36 0 0 0 3.52 0 11.84 11.84 0 0 0 11.04-8.32 12.16 12.16 0 0 0-5.44-13.92 48 48 0 0 0 6.88 0.8 48 48 0 0 0 5.92 0 11.84 11.84 0 0 0-5.92 13.92 12 12 0 0 0 15.04 7.84h1.12a11.52 11.52 0 0 0 7.2-14.88 12 12 0 0 0-9.92-8 44.64 44.64 0 0 0 6.56-2.56 11.84 11.84 0 0 0 4.48 9.76 12 12 0 0 0 16.8-2.24v-0.96a11.36 11.36 0 0 0-1.6-15.2 124.64 124.64 0 0 1 39.2-5.92c39.04 0 48 39.84 72.48 86.08V416a4.48 4.48 0 0 0 8.64 1.6l15.36-34.88A214.24 214.24 0 0 0 720.96 416l4 2.88a73.44 73.44 0 0 1-23.84 29.44 11.68 11.68 0 0 1 0 3.52v4a12 12 0 0 1-24 0 16 16 0 0 0-9.92 11.68c-21.28 101.12-94.72 147.2-154.08 147.2s-132-46.08-153.28-147.36zM432 654.24a16 16 0 0 0 1.92-7.52v-21.76a168.48 168.48 0 0 0 80 21.76 168.64 168.64 0 0 0 80-21.6v23.2a16 16 0 0 0 2.08 8 71.52 71.52 0 0 0 22.56 21.6c-35.84 24-85.92 61.12-136.96 101.6a210.88 210.88 0 0 1-128-73.44c30.4-9.92 65.28-27.68 78.4-51.84z m-176 56.48h60.64a241.28 241.28 0 0 0 132.16 94.4A1647.04 1647.04 0 0 0 310.88 928a965.92 965.92 0 0 1-159.04-48l18.72-104.48c6.4-39.52 48.8-64.8 85.44-64.8z m217.44 239.04c110.24-99.2 252.8-212.8 300-238.72 36.48 1.6 77.76 26.08 83.52 65.12l16 106.08a969.44 969.44 0 0 1-359.2 68.48c-13.44 0-26.88-0.48-40.32-0.96z" fill="#1296db" p-id="5845"></path><path d="M413.12 902.88l-3.04 2.72a12 12 0 1 0 16 17.92l2.88-2.56a12 12 0 0 0-16-18.08zM480 845.28l-3.04 2.56a12 12 0 0 0 16 18.4L496 864a12 12 0 1 0-16-18.24zM513.6 816.8l-3.04 2.4a12 12 0 1 0 16 18.56l3.2-2.72a12 12 0 0 0-16-18.4zM581.92 760.64l-3.2 2.56a12 12 0 1 0 15.2 18.56l3.04-2.4a12 12 0 1 0-15.04-18.72zM616.32 733.12l-3.2 2.56a12 12 0 1 0 15.04 18.72l3.04-2.4a12 12 0 0 0-14.88-18.72zM547.84 788.64l-3.2 2.56a12 12 0 1 0 16 18.56l3.04-2.56a12 12 0 0 0-15.2-18.56zM446.4 873.76l-3.04 2.72a12 12 0 1 0 16 18.08l3.04-2.56a12 12 0 0 0-16-18.24z" fill="#1296db" p-id="5846"></path><path d="M432.64 414.08m-21.28 0a21.28 21.28 0 1 0 42.56 0 21.28 21.28 0 1 0-42.56 0Z" fill="#1296db" p-id="5847"></path><path d="M594.56 414.08m-21.28 0a21.28 21.28 0 1 0 42.56 0 21.28 21.28 0 1 0-42.56 0Z" fill="#1296db" p-id="5848"></path><path d="M357.92 612.32a156.8 156.8 0 0 0-12.96-37.6 8 8 0 0 0-14.72 0 156.8 156.8 0 0 0-12.96 37.6 20.16 20.16 0 1 0 40.48 0zM682.4 574.72a156.8 156.8 0 0 0-12.96 37.6 20.16 20.16 0 1 0 40.48 0 156.8 156.8 0 0 0-12.96-37.6 8 8 0 0 0-14.56 0zM513.76 392.8a16 16 0 0 0 14.72-22.4 217.76 217.76 0 0 0-8.8-23.52 6.24 6.24 0 0 0-11.68 0 218.24 218.24 0 0 0-8.96 23.52 16 16 0 0 0 14.72 22.4z" fill="#1296db" p-id="5849"></path><path d="M513.76 323.36m-12 0a12 12 0 1 0 24 0 12 12 0 1 0-24 0Z" fill="#1296db" p-id="5850"></path><path d="M651.04 705.92l-3.2 2.56a12 12 0 1 0 15.04 18.72l3.04-2.4a12 12 0 0 0-14.88-18.72z" fill="#1296db" p-id="5851"></path></svg>