<?xml version="1.0" standalone="no"?><!DOCTYPE svg PUBLIC "-//W3C//DTD SVG 1.1//EN" "http://www.w3.org/Graphics/SVG/1.1/DTD/svg11.dtd"><svg t="1495203658709" class="icon" style="" viewBox="0 0 1024 1024" version="1.1" xmlns="http://www.w3.org/2000/svg" p-id="4045" xmlns:xlink="http://www.w3.org/1999/xlink" width="64" height="64"><defs><style type="text/css"></style></defs><path d="M853.333333 943.686275h-682.666666c-44.172549 0-80.313725-36.141176-80.313726-80.313726V200.784314c0-44.172549 36.141176-80.313725 80.313726-80.313726h682.666666c44.172549 0 80.313725 36.141176 80.313726 80.313726v662.588235c0 44.172549-36.141176 80.313725-80.313726 80.313726z" fill="#48A0DC" p-id="4046"></path><path d="M311.215686 481.882353m-120.470588 0a120.470588 120.470588 0 1 0 240.941177 0 120.470588 120.470588 0 1 0-240.941177 0Z" fill="#FFFFFF" p-id="4047"></path><path d="M712.784314 481.882353m-120.470589 0a120.470588 120.470588 0 1 0 240.941177 0 120.470588 120.470588 0 1 0-240.941177 0Z" fill="#FFFFFF" p-id="4048"></path><path d="M746.817255 1024h-469.63451a26.202353 26.202353 0 0 1-26.202353-26.202353V943.686275h522.039216v54.111372c0 14.476549-11.725804 26.202353-26.202353 26.202353zM397.653333 0h228.673255c14.496627 0 26.222431 11.725804 26.222432 26.202353V120.470588h-281.09804V26.202353C371.45098 11.725804 383.176784 0 397.653333 0z" fill="#007EB5" p-id="4049"></path><path d="M652.54902 803.137255h-281.09804a20.078431 20.078431 0 1 1 0-40.156863h281.09804a20.078431 20.078431 0 1 1 0 40.156863z" fill="#556080" p-id="4050"></path><path d="M592.313725 200.784314V120.470588h-160.62745v80.313726h-120.470589l200.784314 200.784313 200.784314-200.784313z" fill="#B0D3F0" p-id="4051"></path><path d="M311.215686 481.882353m-60.235294 0a60.235294 60.235294 0 1 0 120.470588 0 60.235294 60.235294 0 1 0-120.470588 0Z" fill="#F29C1F" p-id="4052"></path><path d="M712.784314 481.882353m-60.235294 0a60.235294 60.235294 0 1 0 120.470588 0 60.235294 60.235294 0 1 0-120.470588 0Z" fill="#F29C1F" p-id="4053"></path></svg>