<?xml version="1.0" standalone="no"?><!DOCTYPE svg PUBLIC "-//W3C//DTD SVG 1.1//EN" "http://www.w3.org/Graphics/SVG/1.1/DTD/svg11.dtd"><svg t="1495203710556" class="icon" style="" viewBox="0 0 1024 1024" version="1.1" xmlns="http://www.w3.org/2000/svg" p-id="5303" xmlns:xlink="http://www.w3.org/1999/xlink" width="64" height="64"><defs><style type="text/css"></style></defs><path d="M392.48 606.08h232v288.96h-232z" fill="#AE8164" p-id="5304"></path><path d="M410.4 672.96l157.12 157.28 66.24-77.12v-115.36l-48.64 48.64-72.64 11.36-68.64-19.2-33.44-5.6z" fill="#A2785D" p-id="5305"></path><path d="M688 414.08s11.68 0 11.68-51.84c0-80-59.36-158.56-186.4-158.56s-184.8 81.44-184.8 160c0 43.68 7.68 50.24 7.68 50.24-24.96-1.92-37.6 26.72-30.24 61.6A77.92 77.92 0 0 0 352 534.08v32c0 36 47.2 90.88 100.16 117.12a105.28 105.28 0 0 0 46.88 10.88h26.4a100.16 100.16 0 0 0 42.24-8.8C622.72 660 672 603.2 672 566.08v-32a77.12 77.12 0 0 0 45.6-58.4c7.84-34.88-4.64-66.72-29.6-61.6z" fill="#AC8164" p-id="5306"></path><path d="M688 414.08s11.68 0 11.68-51.84c0-80-59.36-158.56-186.4-158.56-8.96 0-17.44 0-25.76 1.28l-10.4 43.2a726.88 726.88 0 0 0-52.16 281.28 873.92 873.92 0 0 0 11.04 144c5.28 3.2 10.72 6.4 16 9.12a105.28 105.28 0 0 0 46.88 10.88h26.4a100.16 100.16 0 0 0 42.24-8.8C622.72 660 672 603.2 672 566.08v-32a77.12 77.12 0 0 0 45.6-58.4c7.84-34.88-4.64-66.72-29.6-61.6z" fill="#A47C61" p-id="5307"></path><path d="M589.76 482.4m-20 0a20 20 0 1 0 40 0 20 20 0 1 0-40 0Z" fill="#333333" p-id="5308"></path><path d="M437.76 482.4m-20 0a20 20 0 1 0 40 0 20 20 0 1 0-40 0Z" fill="#333333" p-id="5309"></path><path d="M589.76 482.4m-20 0a20 20 0 1 0 40 0 20 20 0 1 0-40 0Z" fill="#333333" p-id="5310"></path><path d="M496 693.92c29.6 0 50.08 1.92 76.96-10.88a240 240 0 0 0 90.72-74.24v-130.72l-27.2 72L592 579.04A41.76 41.76 0 0 0 570.88 560l-19.2-5.6a146.4 146.4 0 0 0-82.4 0l-19.2 5.6a41.76 41.76 0 0 0-20.32 18.88L384 550.08l-23.36-72v131.68c25.28 35.84 80.64 84.16 135.36 84.16z m-44.64-83.2v-13.92c0-4 2.72-7.52 10.24-9.28l28.96-7.36a82.08 82.08 0 0 1 40.48 0l32 8.16a8.8 8.8 0 0 1 6.72 8.48v13.6a23.84 23.84 0 0 1-24.48 23.2 8.96 8.96 0 0 1-9.28-8.8 8.96 8.96 0 0 0-9.28-8.64h-32a8.96 8.96 0 0 0-9.28 8.64 8.96 8.96 0 0 1-9.12 8.8 23.52 23.52 0 0 1-24.48-22.88z" fill="#333333" p-id="5311"></path><path d="M512 993.44a977.28 977.28 0 0 0 400-84.48l-4.16-32a96 96 0 0 0-72-74.56L704 768.96l-45.28-74.88L592 801.44l-80 96-80-96-64-112-48 80-132.96 33.6a102.08 102.08 0 0 0-70.88 80L112 908.48a987.2 987.2 0 0 0 400 84.96z" fill="#77A0D4" p-id="5312"></path><path d="M556.48 929.44m-12 0a12 12 0 1 0 24 0 12 12 0 1 0-24 0Z" fill="#333333" p-id="5313"></path><path d="M640 881.28z" fill="#535C63" p-id="5314"></path><path d="M368.48 689.44l-48.16 79.52 48.16 112.48 64-80-64-112zM656.48 689.44l48.32 79.52-48.32 112.48-64-80 64-112z" fill="#77A0D4" p-id="5315"></path><path d="M848 335.04a56.8 56.8 0 0 0-20.64-43.52 56.32 56.32 0 0 0 13.28-35.52A58.08 58.08 0 0 0 800 200.8a55.84 55.84 0 0 0 2.88-17.76 59.04 59.04 0 0 0-60.16-57.92 63.04 63.04 0 0 0-7.52 0 59.04 59.04 0 0 0-60.16-57.92 62.24 62.24 0 0 0-13.12 1.44l-4.16-2.24a59.68 59.68 0 0 0-57.44-42.4 61.44 61.44 0 0 0-33.6 9.92h-0.8a61.12 61.12 0 0 0-106.56 0h-3.36a61.44 61.44 0 0 0-33.6-9.92 59.68 59.68 0 0 0-57.92 42.56l-4.16 2.24a62.24 62.24 0 0 0-13.12-1.44 59.04 59.04 0 0 0-60.16 57.92 63.04 63.04 0 0 0-7.52 0 59.04 59.04 0 0 0-60.16 57.92 55.84 55.84 0 0 0 2.88 17.76A58.08 58.08 0 0 0 181.92 256a56.32 56.32 0 0 0 13.12 36 56.8 56.8 0 0 0-20.64 43.52 57.6 57.6 0 0 0 30.72 50.4 56 56 0 0 0-8.16 29.12 58.24 58.24 0 0 0 42.08 55.2 55.84 55.84 0 0 0-0.96 9.92 58.56 58.56 0 0 0 48.8 56.8 60.48 60.48 0 0 0 52.64 29.92 61.28 61.28 0 0 0 12.8-1.44V534.4a77.92 77.92 0 0 1-46.24-58.4 88.32 88.32 0 0 1-2.08-25.6 41.12 41.12 0 0 0 32-13.44l8 9.28c3.36 8.16 4.48 10.08 9.92 20.96a3.52 3.52 0 0 0 6.72-1.6v-56.96-11.84a36.16 36.16 0 0 0 23.36-32 32 32 0 0 0 0-3.2 43.2 43.2 0 0 0 16 3.2 39.84 39.84 0 0 0 37.44-23.84 42.08 42.08 0 0 0 26.56 9.28 43.52 43.52 0 0 0 10.72-1.44 41.44 41.44 0 0 0 74.4 0 43.52 43.52 0 0 0 10.72 1.44 42.08 42.08 0 0 0 26.56-9.28A39.84 39.84 0 0 0 624 364a43.2 43.2 0 0 0 16-3.2 32 32 0 0 0 0 3.2 36.16 36.16 0 0 0 23.36 32v68.16a3.52 3.52 0 0 0 6.72 1.6c5.44-10.88 6.56-12.8 10.08-21.12l8.32-9.6a40.96 40.96 0 0 0 30.88 14.24 92.64 92.64 0 0 1-1.92 24.96A77.12 77.12 0 0 1 672 534.08v32a58.88 58.88 0 0 0 64-29.44A58.56 58.56 0 0 0 784 480a55.84 55.84 0 0 0-0.96-9.92 58.24 58.24 0 0 0 42.08-55.2 56 56 0 0 0-8.16-29.12A57.6 57.6 0 0 0 848 335.04z" fill="#333333" p-id="5316"></path></svg>