<?xml version="1.0" standalone="no"?><!DOCTYPE svg PUBLIC "-//W3C//DTD SVG 1.1//EN" "http://www.w3.org/Graphics/SVG/1.1/DTD/svg11.dtd"><svg t="1495203617058" class="icon" style="" viewBox="0 0 1024 1024" version="1.1" xmlns="http://www.w3.org/2000/svg" p-id="2421" xmlns:xlink="http://www.w3.org/1999/xlink" width="64" height="64"><defs><style type="text/css"></style></defs><path d="M319.808 574.72c-41.728 0-75.456 34.048-75.456 75.904 0 42.048 33.728 76.032 75.456 76.032 41.664 0 75.392-33.984 75.392-76.032C395.2 608.832 361.472 574.72 319.808 574.72zM852.8 136.832 409.664 136.832l71.424-111.744-245.76 111.744L226.432 83.2 101.312 155.712l0 2.24C71.616 178.816 52.096 213.184 52.096 252.224l0 631.232c0 63.872 51.648 115.52 115.392 115.52l685.312 0c63.808 0 115.456-51.648 115.456-115.52L968.256 252.224C968.256 188.48 916.608 136.832 852.8 136.832zM892.288 856.64c0 31.872-25.856 57.6-57.792 57.6L567.296 914.24l-45.888 45.952-0.768-0.768c-3.072 3.968-7.296 6.848-12.672 6.848-5.376 0-9.6-2.944-12.672-6.848l-0.768 0.768L448.64 914.24 181.376 914.24c-31.936 0-57.792-25.728-57.792-57.6L123.584 500.864l223.488-158.528 451.392 223.488L798.464 485.376l93.888 40.192L892.352 856.64zM722.944 574.72c-41.664 0-75.52 34.048-75.52 75.904 0 42.048 33.792 76.032 75.52 76.032s75.52-33.984 75.52-76.032C798.464 608.832 764.608 574.72 722.944 574.72z" p-id="2422"></path></svg>