<?xml version="1.0" standalone="no"?><!DOCTYPE svg PUBLIC "-//W3C//DTD SVG 1.1//EN" "http://www.w3.org/Graphics/SVG/1.1/DTD/svg11.dtd"><svg t="1495425478822" class="icon" style="" viewBox="0 0 1071 1024" version="1.1" xmlns="http://www.w3.org/2000/svg" p-id="2715" xmlns:xlink="http://www.w3.org/1999/xlink" width="66.9375" height="64"><defs><style type="text/css"></style></defs><path d="M44.5732 1023.99968a38.333592 38.333592 0 0 1-37.629636-46.205098l38.717568-188.532158c0.703956-3.263795 1.791887-6.399598 3.263795-9.343413a139.991207 139.991207 0 0 1 78.523068-69.691622l231.729444-82.618811a16.862941 16.862941 0 0 0 11.135301-15.807007v-33.789877a67.835739 67.835739 0 0 0-24.766445-52.476704 240.4009 240.4009 0 0 1-88.442444-185.908323V242.480769C257.103851 108.793166 365.897017 0 499.648616 0c133.687603 0 242.480769 108.793166 242.480769 242.480769v97.145898c0 71.547506-32.061986 139.127261-87.866481 185.524347a69.339645 69.339645 0 0 0-25.214416 53.564635v33.149918c0 7.039558 4.479719 13.439156 11.1353 15.807007 19.966746 7.103554 30.398091 29.054175 23.230541 49.020921a38.333592 38.333592 0 0 1-49.020921 23.294537 93.818107 93.818107 0 0 1-62.140096-88.122465v-33.149918c0-43.709255 19.326786-84.794674 52.988671-112.696921a164.277681 164.277681 0 0 0 60.092226-126.392061V242.480769c0-91.38626-74.299333-165.685593-165.685593-165.685593s-165.749589 74.299333-165.749589 165.685593v97.145898c0 48.828933 22.078613 95.034031 60.476201 126.712041a144.08695 144.08695 0 0 1 52.732688 111.672986v33.789877a93.754111 93.754111 0 0 1-62.140097 88.122465l-231.729444 82.682807c-14.143112 5.055682-25.918372 14.783071-33.469898 27.646263l-37.629636 183.092499a38.397588 38.397588 0 0 1-37.565641 30.654075M926.629796 979.138498a44.765188 44.765188 0 1 1-89.594372 0 44.765188 44.765188 0 1 1 89.594372 0m-83.194774-118.168578v-15.934999c0-40.893431 24.254477-77.883108 61.756121-94.266079a58.364334 58.364334 0 1 0-75.067285-80.634935 38.429586 38.429586 0 0 1-68.027727-35.709757 134.99952 134.99952 0 0 1 119.736479-72.379453 135.191508 135.191508 0 1 1 54.076603 259.055728 26.174356 26.174356 0 0 0-15.679015 23.934496v15.934999c0 21.182669-17.374909 38.397588-38.397588 38.397588-31.901996 0-38.397588-38.397588-38.397588-38.397588z" fill="" p-id="2716"></path></svg>